<svg xmlns="http://www.w3.org/2000/svg" viewBox="0 0 128 128"><defs><linearGradient id="g" x1="0" y1="0" x2="1" y2="1"><stop offset="0" stop-color="#27dcff"/><stop offset=".5" stop-color="#0787ff"/><stop offset="1" stop-color="#1334cc"/></linearGradient><linearGradient id="s" x1="0" y1="0" x2="1" y2="1"><stop offset="0" stop-color="#fff"/><stop offset="1" stop-color="#94a3b8"/></linearGradient></defs><rect width="128" height="128" rx="26" fill="#06182f"/><path d="M18 89c0-47 14-69 34-69 18 0 30 21 42 46 8 17 13 24 20 24 6 0 9-10 9-29V31l-19 8v27c0 8-1 11-3 11-4 0-8-9-14-21C75 31 64 15 49 15 24 15 10 43 10 91v24l8-5z" fill="url(#g)"/><path d="M18 89c0-39 9-60 26-66 9-4 20-1 30 8L61 45c-5-4-9-6-14-4-9 4-13 20-13 48v13l-16 9z" fill="url(#s)" opacity=".95"/><rect x="96" y="16" width="10" height="10" rx="2" fill="#0a8cff"/><rect x="108" y="28" width="7" height="7" rx="2" fill="#0a8cff"/><rect x="92" y="31" width="6" height="6" rx="2" fill="#0a8cff"/></svg>